<svg version="1.2" xmlns="http://www.w3.org/2000/svg" viewBox="0 0 256 259" width="256" height="259"><defs><linearGradient id="P" gradientUnits="userSpaceOnUse"/><linearGradient id="g1" x1="128" y1="223.9" x2="128" y2="34.9" href="#P"><stop stop-color="#7d7d7d"/><stop offset="1" stop-color="#fff"/></linearGradient></defs><style>.a{fill:url(#g1);stroke:#424242;stroke-linejoin:round;stroke-opacity:.5;stroke-width:3}</style><path fill-rule="evenodd" class="a" d="m256 129.4c0 71.4-57.4 129.4-128.2 129.4-58.7 0-108.2-39.8-123.4-94.1l49.2 20.5c3.3 16.7 18 29.4 35.5 29.4 20.1 0 36.3-16.5 36.3-36.7q0-0.8 0-1.7l43.6-31.4q0.5 0 1.1 0c26.7 0 48.3-21.9 48.3-48.8 0-26.9-21.6-48.8-48.3-48.8-26.7 0-48.4 21.9-48.4 48.8v0.7l-30.5 44.7q-1-0.1-2.1-0.1c-7.5 0-14.6 2.4-20.4 6.4l-68.7-28.7c5.2-66.6 60.4-119 127.8-119 70.8 0 128.2 57.9 128.2 129.4zm-149.4 56c4.2-10.3-0.6-22.1-10.8-26.4l-16.3-6.8c6.3-2.4 13.4-2.5 20.1 0.3 6.7 2.8 11.9 8.1 14.7 14.9 2.8 6.8 2.7 14.3-0.1 21-5.7 14-21.7 20.7-35.6 14.8-6.4-2.7-11.2-7.6-14-13.4l15.8 6.5c10.2 4.3 21.9-0.5 26.2-10.9zm63.5-56.8c-17.8 0-32.2-14.6-32.2-32.6 0-17.9 14.4-32.5 32.2-32.5 17.8 0 32.2 14.6 32.2 32.5 0 18-14.4 32.6-32.2 32.6zm0-8.2c13.4 0 24.2-10.9 24.2-24.4 0-13.5-10.8-24.4-24.2-24.4-13.3 0-24.2 10.9-24.2 24.4 0 13.5 10.9 24.4 24.2 24.4z"/></svg>